<?xml version="1.0" encoding="utf-8"?>
<!-- Generator: Adobe Illustrator 15.1.0, SVG Export Plug-In . SVG Version: 6.00 Build 0)  -->
<!DOCTYPE svg PUBLIC "-//W3C//DTD SVG 1.1//EN" "http://www.w3.org/Graphics/SVG/1.1/DTD/svg11.dtd">
<svg version="1.1" id="Ebene_1" xmlns="http://www.w3.org/2000/svg" xmlns:xlink="http://www.w3.org/1999/xlink" x="0px" y="0px"
	 width="100px" height="100px" viewBox="0 0 100 100" enable-background="new 0 0 100 100" xml:space="preserve">
<g>
	<path d="M11.24,68.941H9.863l0.085-3.281l-0.085-7.616h1.394l-0.085,7.497L11.24,68.941z"/>
	<path d="M20.895,58.852c0.578,0.55,0.867,1.341,0.867,2.372c0,1.213-0.36,2.165-1.08,2.855c-0.72,0.691-1.714,1.037-2.983,1.037
		h-1.292v0.425l0.068,3.4h-1.377l0.085-3.281l-0.085-7.616l3.332-0.017C19.496,58.027,20.317,58.303,20.895,58.852z M20.368,61.343
		c0-1.405-0.748-2.137-2.243-2.193L16.475,59.2l-0.051,4.777l1.785,0.034C19.648,63.785,20.368,62.896,20.368,61.343z"/>
	<path d="M26.574,64.811l-4.097,0.595l-0.136-0.136v-0.851l4.114-0.577l0.118,0.118V64.811z"/>
	<path d="M30.177,68.941H28.8l0.085-3.281L28.8,58.044h1.394l-0.085,7.497L30.177,68.941z M36.518,68.652l-0.018,0.17
		c-0.351,0.103-0.781,0.192-1.292,0.272l-0.152-0.085c-1.836-2.086-3.4-4.007-4.692-5.764v-0.102l3.638-4.148l0.663-0.952h1.547
		l-4.402,5.117C33.362,65.167,34.931,66.998,36.518,68.652z"/>
	<path d="M45.154,68.941l-0.255-1.088l-0.611-1.87l-2.448-0.051l-2.21,0.051l-0.663,1.802l-0.272,1.156h-1.359l3.995-10.897h1.581
		l3.638,10.897H45.154z M42.145,59.455h-0.119l-1.972,5.372l1.904,0.034l1.955-0.034L42.145,59.455z"/>
	<path d="M58.756,68.941L58.5,65.626l-0.578-5.423h-0.119l-3.025,7.48h-1.123l-2.873-7.48h-0.136l-0.578,5.321l-0.289,3.417h-1.156
		l1.14-10.897h1.546l0.561,1.666l2.363,6.205h0.104l2.48-6.307l0.562-1.564h1.529l1.07,10.897H58.756z"/>
	<path d="M69.396,68.941h-6.119l0.084-3.281l-0.084-7.616h6.137l0.068,0.137l-0.104,1.054l-2.566-0.051l-2.158,0.034l-0.035,3.569
		l2.041,0.034l1.801-0.051l0.104,0.119l-0.119,1.054l-1.904-0.034l-1.938,0.018l-0.018,1.614l0.051,2.262l2.158,0.017l2.619-0.068
		l0.084,0.137L69.396,68.941z"/>
	<path d="M79.41,68.618l-0.018,0.17c-0.408,0.159-0.828,0.261-1.258,0.307l-0.188-0.119c-0.93-1.395-1.762-2.754-2.498-4.08h-1.99
		v0.646l0.068,3.4H72.15l0.086-3.281l-0.086-7.616l3.332-0.017c1.066,0,1.891,0.27,2.475,0.808c0.582,0.538,0.875,1.307,0.875,2.304
		c0,0.748-0.195,1.419-0.586,2.015c-0.393,0.595-0.943,1.057-1.658,1.385C77.336,65.773,78.277,67.134,79.41,68.618z M75.518,63.79
		c1.268-0.362,1.902-1.207,1.902-2.532c0-1.349-0.748-2.052-2.242-2.108l-1.65,0.051l-0.051,4.539L75.518,63.79z"/>
	<path d="M88.742,68.941l-0.254-1.088l-0.611-1.87l-2.449-0.051l-2.209,0.051l-0.664,1.802l-0.271,1.156h-1.359l3.994-10.897H86.5
		l3.637,10.897H88.742z M85.734,59.455h-0.119l-1.973,5.372l1.904,0.034l1.955-0.034L85.734,59.455z"/>
</g>
<g>
	<path d="M59.388,47.785H40.612c-2.566,0-3.498-2.091-3.498-3.497V25.521c0-2.565,2.092-3.496,3.498-3.496h18.775
		c2.566,0,3.498,2.091,3.498,3.496v18.768C62.886,46.854,60.794,47.785,59.388,47.785z M40.612,23.704
		c-0.422,0.007-1.818,0.156-1.818,1.816v18.768c0.008,0.422,0.156,1.817,1.818,1.817h18.771c0.309-0.005,1.822-0.117,1.822-1.817
		V25.521c-0.008-0.422-0.156-1.816-1.818-1.816H40.612z"/>
	<g>
		<circle fill="none" stroke="#000000" stroke-width="1.7" stroke-miterlimit="10" cx="50" cy="34.904" r="8.048"/>
		<circle fill="none" stroke="#000000" stroke-width="1.7" stroke-miterlimit="10" cx="50" cy="34.904" r="5.555"/>
		<path fill="none" stroke="#000000" stroke-width="1.7" stroke-linecap="round" stroke-miterlimit="10" d="M46.971,34.904
			c0-1.674,1.356-3.03,3.029-3.03"/>
	</g>
</g>
</svg>
